<svg version="1.1" id="Layer_1" xmlns="http://www.w3.org/2000/svg" xmlns:xlink="http://www.w3.org/1999/xlink" x="0px" y="0px"
	 width="100%" viewBox="0 0 500 500" enable-background="new 0 0 500 500" xml:space="preserve">
<path fill="#000000" opacity="1.000000" stroke="none" 
	d="
M323.000000,501.000000 
	C215.333359,501.000000 108.166718,501.000000 1.000057,501.000000 
	C1.000038,334.333405 1.000038,167.666794 1.000019,1.000147 
	C167.666565,1.000098 334.333130,1.000098 500.999756,1.000049 
	C500.999847,167.666519 500.999847,334.333038 500.999939,500.999786 
	C441.833344,501.000000 382.666656,501.000000 323.000000,501.000000 
M275.268127,257.199158 
	C282.207001,246.604614 289.180298,236.032440 296.076752,225.410355 
	C306.743164,208.981644 317.290649,192.474854 328.100525,176.141449 
	C329.130157,174.585693 331.633545,173.201660 333.499695,173.139175 
	C342.655396,172.832520 351.827332,173.038513 360.992615,172.957275 
	C362.322296,172.945496 364.193695,172.811249 364.887756,171.969559 
	C370.678223,164.947296 376.413055,157.865524 381.825653,150.550873 
	C384.755829,146.591003 387.024689,142.141754 389.564545,137.958267 
	C388.652649,137.351929 388.527710,137.196091 388.402374,137.195786 
	C359.079498,137.123749 329.756592,137.055115 300.433655,137.036499 
	C299.533997,137.035934 298.295624,137.275238 297.787506,137.882019 
	C293.561401,142.928619 289.080475,147.826492 285.424591,153.271561 
	C279.139618,162.632339 273.534973,172.446854 267.388947,181.904678 
	C258.772949,195.163452 249.695862,208.126587 241.248154,221.489380 
	C235.051956,231.290634 229.661713,241.597534 223.710617,251.558609 
	C215.911072,264.613586 207.952576,277.574646 199.904648,290.477661 
	C199.408554,291.273071 197.534164,291.208771 195.486313,291.766296 
	C204.184845,306.451996 213.091248,321.488617 222.765274,337.821228 
	C227.412292,330.783417 231.117096,325.150940 234.844238,319.533264 
	C239.831619,312.016144 244.836304,304.510529 249.988007,297.713837 
	C261.639679,316.292450 273.281219,334.877472 284.948151,353.446503 
	C289.543488,360.760406 294.374756,367.933228 298.751953,375.374207 
	C301.215546,379.562195 302.701111,377.913422 304.402527,375.065460 
	C310.842712,364.285278 317.324829,353.529053 323.615021,342.661865 
	C324.374908,341.349030 324.796997,338.988220 324.129211,337.834747 
	C318.185181,327.567474 311.919006,317.487518 305.829803,307.303314 
	C299.034119,295.937439 292.438385,284.450378 285.526154,273.156525 
	C282.295807,267.878418 278.525543,262.930817 275.268127,257.199158 
M184.491928,280.989410 
	C180.559311,274.041687 176.660736,267.074432 172.686050,260.150848 
	C166.839783,249.967163 160.879944,239.848312 155.078568,229.639297 
	C149.400299,219.646942 143.859665,209.576340 138.259033,199.539856 
	C133.235092,190.536865 128.224854,181.526215 123.184746,172.532303 
	C117.347267,162.115509 111.449371,151.732376 105.652145,141.293304 
	C103.874588,138.092468 101.582100,136.779556 97.698097,136.887909 
	C86.377777,137.203735 75.042961,137.000015 63.713829,137.000000 
	C59.290501,136.999985 54.867168,137.000000 49.307690,137.000000 
	C96.076897,217.631180 142.267761,297.265289 188.743484,377.390472 
	C190.560410,375.302246 192.038864,373.821198 193.267029,372.155609 
	C200.549820,362.278961 207.717590,352.316956 215.060852,342.485840 
	C216.798019,340.160095 216.906494,338.237457 215.418030,335.779419 
	C211.872177,329.923920 208.463623,323.982361 205.116058,318.010315 
	C198.330414,305.904755 191.621902,293.755951 184.491928,280.989410 
M365.084686,276.582031 
	C368.354523,271.815216 371.741516,267.123962 374.873077,262.267944 
	C386.021332,244.980804 397.032288,227.605042 408.195251,210.327469 
	C415.201569,199.483353 422.411011,188.770691 429.483612,177.969147 
	C434.681427,170.030853 439.823914,162.056152 444.955414,154.074738 
	C448.432861,148.665970 451.848450,143.217407 455.670898,137.188599 
	C436.340759,137.188599 418.059937,137.188599 399.892914,137.188599 
	C395.893311,143.493164 392.070892,149.852936 387.907928,155.981354 
	C384.149048,161.514877 379.763000,166.628723 376.103119,172.221817 
	C368.265350,184.199478 360.804596,196.423264 353.021912,208.437729 
	C347.616821,216.781799 341.863129,224.899261 336.390839,233.200790 
	C329.878204,243.080475 323.557770,253.086823 317.045197,262.966492 
	C311.952789,270.691833 306.710510,278.318726 301.501007,285.966339 
	C299.604218,288.750885 299.904449,291.285126 301.556976,294.174988 
	C307.875854,305.225128 313.951050,316.414337 320.226807,327.489563 
	C321.928619,330.492920 324.015442,333.278076 326.135620,336.480652 
	C333.625580,324.809326 340.648041,313.703522 347.841461,302.709625 
	C353.428650,294.170593 359.229126,285.771149 365.084686,276.582031 
M239.119781,163.615753 
	C244.354111,155.016510 249.588425,146.417252 255.012527,137.506226 
	C205.771179,137.506226 157.041199,137.506226 108.131676,137.506226 
	C113.438354,147.342255 118.581398,156.663788 123.499153,166.102692 
	C125.261772,169.485779 127.274597,171.143250 131.478973,171.114990 
	C162.954727,170.903564 194.433792,170.856659 225.908646,171.126617 
	C231.868713,171.177719 236.667496,170.642776 239.119781,163.615753 
z"/>
<path fill="#229214" opacity="1.000000" stroke="none" 
	d="
M184.686768,281.307190 
	C191.621902,293.755951 198.330414,305.904755 205.116058,318.010315 
	C208.463623,323.982361 211.872177,329.923920 215.418030,335.779419 
	C216.906494,338.237457 216.798019,340.160095 215.060852,342.485840 
	C207.717590,352.316956 200.549820,362.278961 193.267029,372.155609 
	C192.038864,373.821198 190.560410,375.302246 188.743484,377.390472 
	C142.267761,297.265289 96.076897,217.631180 49.307690,137.000000 
	C54.867168,137.000000 59.290501,136.999985 63.713829,137.000000 
	C75.042961,137.000015 86.377777,137.203735 97.698097,136.887909 
	C101.582100,136.779556 103.874588,138.092468 105.652145,141.293304 
	C111.449371,151.732376 117.347267,162.115509 123.184746,172.532303 
	C128.224854,181.526215 133.235092,190.536865 138.259033,199.539856 
	C143.859665,209.576340 149.400299,219.646942 155.078568,229.639297 
	C160.879944,239.848312 166.839783,249.967163 172.686050,260.150848 
	C176.660736,267.074432 180.559311,274.041687 184.686768,281.307190 
z"/>
<path fill="#FFFF00" opacity="1.000000" stroke="none" 
	d="
M249.833588,297.000000 
	C244.836304,304.510529 239.831619,312.016144 234.844238,319.533264 
	C231.117096,325.150940 227.412292,330.783417 222.765274,337.821228 
	C213.091248,321.488617 204.184845,306.451996 195.486313,291.766296 
	C197.534164,291.208771 199.408554,291.273071 199.904648,290.477661 
	C207.952576,277.574646 215.911072,264.613586 223.710617,251.558609 
	C229.661713,241.597534 235.051956,231.290634 241.248154,221.489380 
	C249.695862,208.126587 258.772949,195.163452 267.388947,181.904678 
	C273.534973,172.446854 279.139618,162.632339 285.424591,153.271561 
	C289.080475,147.826492 293.561401,142.928619 297.787506,137.882019 
	C298.295624,137.275238 299.533997,137.035934 300.433655,137.036499 
	C329.756592,137.055115 359.079498,137.123749 388.402374,137.195786 
	C388.527710,137.196091 388.652649,137.351929 389.564545,137.958267 
	C387.024689,142.141754 384.755829,146.591003 381.825653,150.550873 
	C376.413055,157.865524 370.678223,164.947296 364.887756,171.969559 
	C364.193695,172.811249 362.322296,172.945496 360.992615,172.957275 
	C351.827332,173.038513 342.655396,172.832520 333.499695,173.139175 
	C331.633545,173.201660 329.130157,174.585693 328.100525,176.141449 
	C317.290649,192.474854 306.743164,208.981644 296.076752,225.410355 
	C289.180298,236.032440 282.207001,246.604614 274.821899,257.693329 
	C269.918640,265.291931 265.479279,272.407532 260.999115,279.497314 
	C257.302368,285.347382 253.557251,291.166931 249.833588,297.000000 
z"/>
<path fill="#0000FF" opacity="1.000000" stroke="none" 
	d="
M365.009735,276.945831 
	C359.229126,285.771149 353.428650,294.170593 347.841461,302.709625 
	C340.648041,313.703522 333.625580,324.809326 326.135620,336.480652 
	C324.015442,333.278076 321.928619,330.492920 320.226807,327.489563 
	C313.951050,316.414337 307.875854,305.225128 301.556976,294.174988 
	C299.904449,291.285126 299.604218,288.750885 301.501007,285.966339 
	C306.710510,278.318726 311.952789,270.691833 317.045197,262.966492 
	C323.557770,253.086823 329.878204,243.080475 336.390839,233.200790 
	C341.863129,224.899261 347.616821,216.781799 353.021912,208.437729 
	C360.804596,196.423264 368.265350,184.199478 376.103119,172.221817 
	C379.763000,166.628723 384.149048,161.514877 387.907928,155.981354 
	C392.070892,149.852936 395.893311,143.493164 399.892914,137.188599 
	C418.059937,137.188599 436.340759,137.188599 455.670898,137.188599 
	C451.848450,143.217407 448.432861,148.665970 444.955414,154.074738 
	C439.823914,162.056152 434.681427,170.030853 429.483612,177.969147 
	C422.411011,188.770691 415.201569,199.483353 408.195251,210.327469 
	C397.032288,227.605042 386.021332,244.980804 374.873077,262.267944 
	C371.741516,267.123962 368.354523,271.815216 365.009735,276.945831 
z"/>
<path fill="#229214" opacity="1.000000" stroke="none" 
	d="
M238.999527,163.966599 
	C236.667496,170.642776 231.868713,171.177719 225.908646,171.126617 
	C194.433792,170.856659 162.954727,170.903564 131.478973,171.114990 
	C127.274597,171.143250 125.261772,169.485779 123.499153,166.102692 
	C118.581398,156.663788 113.438354,147.342255 108.131676,137.506226 
	C157.041199,137.506226 205.771179,137.506226 255.012527,137.506226 
	C249.588425,146.417252 244.354111,155.016510 238.999527,163.966599 
z"/>
<path fill="#FF0000" opacity="1.000000" stroke="none" 
	d="
M249.910797,297.356934 
	C253.557251,291.166931 257.302368,285.347382 260.999115,279.497314 
	C265.479279,272.407532 269.918640,265.291931 274.687805,258.010437 
	C278.525543,262.930817 282.295807,267.878418 285.526154,273.156525 
	C292.438385,284.450378 299.034119,295.937439 305.829803,307.303314 
	C311.919006,317.487518 318.185181,327.567474 324.129211,337.834747 
	C324.796997,338.988220 324.374908,341.349030 323.615021,342.661865 
	C317.324829,353.529053 310.842712,364.285278 304.402527,375.065460 
	C302.701111,377.913422 301.215546,379.562195 298.751953,375.374207 
	C294.374756,367.933228 289.543488,360.760406 284.948151,353.446503 
	C273.281219,334.877472 261.639679,316.292450 249.910797,297.356934 
z"/>
</svg>